<svg fill="#000000" version="1.1" id="Capa_1" xmlns="http://www.w3.org/2000/svg"
	 width="800px" height="800px" viewBox="0 0 416.979 416.979" xml:space="preserve">
<defs>
	<linearGradient id="iconGradient" x1="0%" y1="0%" x2="100%" y2="100%">
		<stop offset="0%" style="stop-color:#2FEF10;stop-opacity:1" />
		<stop offset="100%" style="stop-color:#0096FF;stop-opacity:1" />
	</linearGradient>
</defs>
<g>
	<path fill="url(#iconGradient)" d="M208.489,0C93.343,0,0,93.343,0,208.489c0,115.146,93.343,208.489,208.489,208.489s208.49-93.344,208.49-208.489
		C416.979,93.343,323.635,0,208.489,0z M329.006,235.1c0,6.299-5.105,11.404-11.404,11.404h-71.099v71.1
		c0,6.298-5.106,11.404-11.404,11.404h-53.22c-6.298,0-11.404-5.106-11.404-11.404v-71.1h-71.1c-6.298,0-11.404-5.106-11.404-11.404
		v-53.22c0-6.298,5.106-11.404,11.404-11.404h71.1v-71.1c0-6.298,5.105-11.404,11.404-11.404h53.22
		c6.298,0,11.404,5.106,11.404,11.404v71.1h71.099c6.299,0,11.404,5.106,11.404,11.404V235.1L329.006,235.1z"/>
</g>
</svg>
